<?xml version="1.0" encoding="UTF-8" standalone="no"?>
<svg
   xmlns:dc="http://purl.org/dc/elements/1.1/"
   xmlns:cc="http://creativecommons.org/ns#"
   xmlns:rdf="http://www.w3.org/1999/02/22-rdf-syntax-ns#"
   xmlns:svg="http://www.w3.org/2000/svg"
   xmlns="http://www.w3.org/2000/svg"
   xmlns:sodipodi="http://sodipodi.sourceforge.net/DTD/sodipodi-0.dtd"
   xmlns:inkscape="http://www.inkscape.org/namespaces/inkscape"
   inkscape:version="1.0beta1 (76ce730, 2019-10-19)"
   sodipodi:docname="Logo FF Judo.svg"
   viewBox="0 0 500 801.89599"
   height="801.896"
   width="500"
   xml:space="preserve"
   id="svg833"
   version="1.1"><metadata
     id="metadata839"><rdf:RDF><cc:Work
         rdf:about=""><dc:format>image/svg+xml</dc:format><dc:type
           rdf:resource="http://purl.org/dc/dcmitype/StillImage" /><dc:title></dc:title></cc:Work></rdf:RDF></metadata><defs
     id="defs837" /><sodipodi:namedview
     inkscape:current-layer="g841"
     inkscape:window-maximized="0"
     inkscape:window-y="23"
     inkscape:window-x="0"
     inkscape:cy="439.61192"
     inkscape:cx="266.17116"
     inkscape:zoom="0.49497475"
     showgrid="false"
     id="namedview835"
     inkscape:window-height="788"
     inkscape:window-width="1440"
     inkscape:pageshadow="2"
     inkscape:pageopacity="0"
     guidetolerance="10"
     gridtolerance="10"
     objecttolerance="10"
     borderopacity="1"
     inkscape:document-rotation="0"
     bordercolor="#666666"
     pagecolor="#ffffff" /><g
     transform="matrix(1.3333333,0,0,-1.3333333,-443.14844,770.66226)"
     inkscape:label="Logo FF Judo"
     inkscape:groupmode="layer"
     id="g841"><g
       id="g2094"><path
         inkscape:connector-curvature="0"
         id="path2015"
         style="color:#000000;font-style:normal;font-variant:normal;font-weight:normal;font-stretch:normal;font-size:medium;line-height:normal;font-family:sans-serif;font-variant-ligatures:normal;font-variant-position:normal;font-variant-caps:normal;font-variant-numeric:normal;font-variant-alternates:normal;font-variant-east-asian:normal;font-feature-settings:normal;font-variation-settings:normal;text-indent:0;text-align:start;text-decoration:none;text-decoration-line:none;text-decoration-style:solid;text-decoration-color:#000000;letter-spacing:normal;word-spacing:normal;text-transform:none;writing-mode:lr-tb;direction:ltr;text-orientation:mixed;dominant-baseline:auto;baseline-shift:baseline;text-anchor:start;white-space:normal;shape-padding:0;shape-margin:0;inline-size:0;clip-rule:nonzero;display:inline;overflow:visible;visibility:visible;opacity:1;isolation:auto;mix-blend-mode:normal;color-interpolation:sRGB;color-interpolation-filters:linearRGB;solid-color:#000000;solid-opacity:1;vector-effect:none;fill:#ffffff;fill-opacity:1;fill-rule:nonzero;stroke:none;stroke-width:19.8479;stroke-linecap:butt;stroke-linejoin:miter;stroke-miterlimit:4;stroke-dasharray:none;stroke-dashoffset:0;stroke-opacity:1;color-rendering:auto;image-rendering:auto;shape-rendering:auto;text-rendering:auto;enable-background:accumulate;stop-color:#000000;stop-opacity:1"
         d="m 684.45508,23.039062 -40.79297,2.96875 6.11328,13.060547 c 5.94571,12.69748 9.77998,24.574507 10.98828,36.25 l -23.90625,6.791016 2.69531,9.537109 c 20.07225,71.020046 30.67586,138.619706 29.25977,208.582036 l -33.36914,19.32226 -0.11328,0.0664 c -23.40152,-7.58894 -48.4268,-23.34919 -69.99219,-42.39844 -25.57175,-22.58816 -46.34651,-49.87916 -55.11914,-71.33984 l -3.5332,-8.64063 -15.27149,5.17969 c -5.38289,-11.27551 -7.88822,-24.25957 -8.24804,-39.26953 l -0.45313,-18.94532 -39.56445,28.84766 0.33594,5.42969 c 5.70631,92.16608 83.40163,173.22923 176.4121,219.62891 l 0.61329,0.30664 C 578.23086,438.06642 532.27973,489.30396 484.75,562.73438 l -3.82227,5.91015 15.38282,19.85547 c -7.01286,11.65525 -18.78515,31.76454 -26.18555,50.04688 l -2.19336,5.41992 17.43359,21.5625 9.02735,11.16601 7.2539,-12.39258 C 550.16447,581.40624 603.88081,504.11019 677.45117,440.91797 l -66.04492,96.16406 h 45.25977 l 6.68164,-11.36328 h 40.83203 l 13.27734,-40.64258 c 63.46967,33.2265 123.92892,94.73195 143.82617,155.32617 l 4.32422,13.16602 23.37891,-17.59375 c 6.91754,13.2016 13.55059,26.68794 17.29492,38.61914 l 4.86523,15.50391 32.00196,-31.55078 -2.21094,-6.00391 C 916.3824,585.88132 883.53412,529.67388 843.625,485.51562 c 11.85416,-1.08049 22.47161,-4.54451 30.83008,-10.06445 9.39869,-6.2069 16.63025,-16.16406 15.46289,-27.75976 v -0.002 l -0.002,-0.006 c -1.16439,-11.48192 -9.57592,-20.01199 -19.75196,-25.30468 -10.16749,-5.28824 -22.86796,-7.92115 -36.5625,-7.25782 -13.53229,0.54443 -25.74335,4.16361 -35.15625,10.33203 -0.181,0.11862 -0.35573,0.24786 -0.53515,0.36915 -7.29392,-16.15636 -18.89521,-33.44229 -28.35352,-45.38868 14.83695,-6.71714 30.79826,-13.76526 50.57422,-21.24609 l 14.73633,-5.57422 -11.39649,-10.88281 c -5.41287,-5.1699 -12.73995,-10.9278 -20.87695,-16.52149 3.53281,-1.04876 6.99923,-2.51439 10.30664,-4.32617 11.42351,-6.2577 21.79943,-16.65022 29.45899,-29.95312 v -0.002 c 7.68246,-13.34796 11.30612,-27.47512 10.62304,-40.30468 -0.6823,-12.81499 -6.22094,-25.30087 -17.76172,-31.16407 -11.36521,-5.83466 -24.58888,-3.55956 -36.01172,2.66407 -11.42668,6.2257 -21.88157,16.63179 -29.55273,30.08789 -0.003,0.004 -0.005,0.008 -0.006,0.0117 -3.7014,6.43578 -6.46131,13.05159 -8.26758,19.61718 l 3.9375,-28.49804 -35.91992,20.80078 C 729.29354,154.16431 710.07129,83.81798 687.2207,29.599609 Z m 74.41211,268.005858 c 0.005,0.7975 0.0249,1.59253 0.0625,2.38086 0.19551,4.10119 0.89438,8.1704 2.12695,12.00586 l -4.48047,2.18555 z m -15.47852,114.65235 c 1.67542,1.50159 3.36282,3.02493 5.06055,4.56835 l -5.39258,-2.94726 -0.45508,0.79102 z"
         transform="matrix(0.75000002,0,0,-0.75000002,0,595.27601)" /><g
         id="g2011"
         transform="translate(2.8510738e-5)"><path
           d="m 370.1759,101.46831 -10.26127,12.70007 c 5.91077,14.61176 17.21925,33.58104 21.57677,40.7077 l -11.3155,14.61176 c 49.05727,75.84901 95.51409,119.3399 135.87038,152.57656 L 539.2759,298.22453 C 463.94698,246.03968 414.02523,176.44582 370.1759,101.46831"
           style="opacity:1;fill:#588ed2;fill-opacity:1;fill-rule:nonzero;stroke:none;stroke-width:7.02826;stop-opacity:1"
           id="path1009"
           inkscape:connector-curvature="0" /><path
           d="m 540.6675,298.91963 -67.32373,-98.63465 h 15.31458 l 56.00823,95.85848 z"
           style="opacity:1;fill:#231f20;fill-opacity:1;fill-rule:nonzero;stroke:none;stroke-width:7.02826;stop-opacity:1"
           id="path1013"
           inkscape:connector-curvature="0" /><path
           d="m 549.36427,290.56864 -6.61359,5.57342 -34.09411,-87.34023 h 14.26035 z"
           style="opacity:1;fill:#231f20;fill-opacity:1;fill-rule:nonzero;stroke:none;stroke-width:7.02826;stop-opacity:1"
           id="path1017"
           inkscape:connector-curvature="0" /><path
           d="m 622.7801,422.95512 c 11.30848,-5.73507 12.35569,-25.22444 2.2631,-42.7951 -10.09258,-17.57066 -27.49456,-27.13612 -38.97172,-21.39403 -11.30847,5.74209 -12.17998,25.22444 -2.08739,42.79509 10.08556,17.74637 27.65622,27.13613 38.79601,21.39404"
           style="opacity:1;fill:#588ed2;fill-opacity:1;fill-rule:nonzero;stroke:none;stroke-width:7.02826;stop-opacity:1"
           id="path1029"
           inkscape:connector-curvature="0" /><path
           d="m 560.50055,279.26298 -22.60992,-39.3161 c 50.44185,-25.04873 98.80332,-72.89012 114.98239,-122.1231 l 16.17906,12.17295 c 6.60656,-12.17295 13.57157,-25.57585 17.40198,-37.748799 l 11.82856,11.659889 c -30.44643,82.63129 -77.94343,142.65265 -137.78207,175.35516"
           style="opacity:1;fill:#588ed2;fill-opacity:1;fill-rule:nonzero;stroke:none;stroke-width:7.02826;stop-opacity:1"
           id="path1033"
           inkscape:connector-curvature="0" /><path
           d="m 659.66161,258.73624 c 1.04019,-10.2683 -12.70007,-19.30664 -30.61511,-20.00947 -17.9291,-0.8715 -33.23665,7.13369 -34.27684,17.40198 -0.86447,10.26829 13.05149,19.30664 30.79082,20.00244 17.92207,0.8715 33.05392,-7.13369 34.10113,-17.39495"
           style="opacity:1;fill:#ed1c24;fill-opacity:1;fill-rule:nonzero;stroke:none;stroke-width:7.02826;stop-opacity:1"
           id="path1037"
           inkscape:connector-curvature="0" /><path
           d="m 467.77457,303.79162 30.44644,23.65713 c -7.82949,4.3505 -15.48327,10.09259 -26.96745,11.1398 l 12.87578,7.30236 c -44.01801,8.52529 -93.77108,56.36667 -108.21416,91.67667 l -10.78136,-3.6547 c -6.95798,10.96409 -9.57249,23.83987 -9.90985,38.10724 l -14.79449,-10.78838 c 3.99908,-64.71625 59.67698,-123.6904 127.34509,-157.44012"
           style="opacity:1;fill:#ed1c24;fill-opacity:1;fill-rule:nonzero;stroke:none;stroke-width:7.02826;stop-opacity:1"
           id="path1041"
           inkscape:connector-curvature="0" /><path
           d="m 539.10512,381.90233 -30.10205,-16.69915 c 1.74301,54.97507 -6.26219,107.85572 -21.73842,163.18221 l 16.34071,4.69488 c 0,12.00427 -3.64767,23.66416 -9.20702,35.6614 l 14.26034,1.04721 c 17.57066,-42.09226 32.18242,-97.07437 30.44644,-187.88655"
           style="opacity:1;fill:#ed1c24;fill-opacity:1;fill-rule:nonzero;stroke:none;stroke-width:7.02826;stop-opacity:1"
           id="path1045"
           inkscape:connector-curvature="0" /><path
           d="m 481.34334,348.85473 83.15138,48.35445 -3.99206,-29.05484 -30.79785,-20.34682 7.65378,-6.61359 35.14132,17.22627 c 13.57157,-6.08648 30.96653,-17.74637 39.32313,-25.75156 -18.78655,-7.13368 -33.58104,-13.91596 -46.80823,-20.00243 6.44492,-6.6136 23.31275,-30.10205 28.71045,-45.57829 -47.497,46.96988 -86.80607,78.11212 -112.38192,81.76681"
           style="opacity:1;fill:#588ed2;fill-opacity:1;fill-rule:nonzero;stroke:none;stroke-width:7.02826;stop-opacity:1"
           id="path1049"
           inkscape:connector-curvature="0" /></g></g><g
       transform="matrix(7.028263,0,0,7.028263,-2003.5623,-3484.317)"
       id="g1902"><g
         id="g1889"><path
           sodipodi:nodetypes="ccccccccccccccc"
           inkscape:connector-curvature="0"
           transform="matrix(0.75000002,0,0,-0.75000002,0,595.27601)"
           d="m 451.77539,114.59961 -3.86719,18.54101 h 5.38672 1.14844 l 1.375,-6.66015 h 3.71094 l -1.39063,6.66015 h 5.38477 1.15039 l 1.37305,-6.66015 h 4.51367 l 1.26757,-5.92774 h 0.41993 l 1.20507,-5.95312 z"
           style="color:#000000;font-style:normal;font-variant:normal;font-weight:normal;font-stretch:normal;font-size:medium;line-height:normal;font-family:sans-serif;font-variant-ligatures:normal;font-variant-position:normal;font-variant-caps:normal;font-variant-numeric:normal;font-variant-alternates:normal;font-variant-east-asian:normal;font-feature-settings:normal;font-variation-settings:normal;text-indent:0;text-align:start;text-decoration:none;text-decoration-line:none;text-decoration-style:solid;text-decoration-color:#000000;letter-spacing:normal;word-spacing:normal;text-transform:none;writing-mode:lr-tb;direction:ltr;text-orientation:mixed;dominant-baseline:auto;baseline-shift:baseline;text-anchor:start;white-space:normal;shape-padding:0;shape-margin:0;inline-size:0;clip-rule:nonzero;display:inline;overflow:visible;visibility:visible;opacity:1;isolation:auto;mix-blend-mode:normal;color-interpolation:sRGB;color-interpolation-filters:linearRGB;solid-color:#000000;solid-opacity:1;vector-effect:none;fill:#ffffff;fill-opacity:1;fill-rule:nonzero;stroke:none;stroke-width:2.824;stroke-linecap:butt;stroke-linejoin:miter;stroke-miterlimit:4;stroke-dasharray:none;stroke-dashoffset:0;stroke-opacity:1;color-rendering:auto;image-rendering:auto;shape-rendering:auto;text-rendering:auto;enable-background:accumulate;stop-color:#000000;stop-opacity:1"
           id="path1759" /><path
           sodipodi:nodetypes="ccccccccccccccscccccccsccccccccccccssccccccccsccccccc"
           inkscape:connector-curvature="0"
           transform="matrix(0.75000002,0,0,-0.75000002,0,595.27601)"
           d="m 475.83789,114.59766 -1.15625,5.73828 h 0.002 l -2.38086,11.57617 H 471.25 l -0.83398,3.48242 -0.41602,1.73828 3.50781,0.002 h 0.0312 c 1.45143,-0.0624 2.71111,-0.65032 3.5,-1.58594 0.78888,-0.93564 1.13339,-2.05817 1.39063,-3.2168 l 0.002,-0.008 0.0586,-0.28125 c 0.0957,0.15015 0.20249,0.29418 0.32813,0.42578 0.77689,0.8138 1.88431,1.10156 3.05664,1.10156 0.52297,0 0.8977,-0.26896 1.33594,-0.43359 h 4.18945 1.14649 l 0.29882,-1.42188 c 0.20486,0.40405 0.4858,0.78915 0.87305,1.09766 0.59241,0.47196 1.36655,0.72133 2.1875,0.75586 l 0.0293,0.002 h 0.0312 c 0.58798,0 1.14118,-0.19652 1.68164,-0.43164 h 5.2207 l 0.33008,-1.57812 c 0.17819,0.29792 0.39473,0.56783 0.65039,0.79687 1.05105,0.94167 2.42858,1.21264 3.82031,1.21289 0.50733,-1e-4 1.01537,-0.0398 1.51953,-0.11719 h 0.008 l 0.006,-0.002 c 2.27423,-0.37217 4.20702,-2.0236 4.91993,-4.625 l 0.01,-0.0371 1.04883,-4.86133 0.004,-0.0176 c 0.29525,-1.56868 0.14726,-3.09621 -0.80469,-4.20313 -0.95196,-1.10693 -2.43387,-1.51172 -4.09766,-1.51172 -0.53618,0 -1.0505,0.0376 -1.54297,0.1211 l -0.004,0.002 c -1.15112,0.19765 -2.22787,0.72329 -3.09571,1.54297 l 1.09961,-5.26367 h -6.16211 l -0.8457,4 c -0.26324,-0.095 -0.52358,-0.22756 -0.78515,-0.29493 0.0377,0.009 0.10773,0.01 0.13476,0.0195 -0.0968,-0.0454 -0.24791,-0.0957 -0.54101,-0.0957 -1.28157,0 -2.35467,0.58656 -3.14258,1.35352 l 0.2207,-1.05274 h -5.08984 -1.10938 -4.13281 l 0.83789,-3.92968 z"
           style="color:#000000;font-style:normal;font-variant:normal;font-weight:normal;font-stretch:normal;font-size:medium;line-height:normal;font-family:sans-serif;font-variant-ligatures:normal;font-variant-position:normal;font-variant-caps:normal;font-variant-numeric:normal;font-variant-alternates:normal;font-variant-east-asian:normal;font-feature-settings:normal;font-variation-settings:normal;text-indent:0;text-align:start;text-decoration:none;text-decoration-line:none;text-decoration-style:solid;text-decoration-color:#000000;letter-spacing:normal;word-spacing:normal;text-transform:none;writing-mode:lr-tb;direction:ltr;text-orientation:mixed;dominant-baseline:auto;baseline-shift:baseline;text-anchor:start;white-space:normal;shape-padding:0;shape-margin:0;inline-size:0;clip-rule:nonzero;display:inline;overflow:visible;visibility:visible;opacity:1;isolation:auto;mix-blend-mode:normal;color-interpolation:sRGB;color-interpolation-filters:linearRGB;solid-color:#000000;solid-opacity:1;vector-effect:none;fill:#ffffff;fill-opacity:1;fill-rule:nonzero;stroke:none;stroke-width:2.824;stroke-linecap:butt;stroke-linejoin:miter;stroke-miterlimit:4;stroke-dasharray:none;stroke-dashoffset:0;stroke-opacity:1;color-rendering:auto;image-rendering:auto;shape-rendering:auto;text-rendering:auto;enable-background:accumulate;stop-color:#000000;stop-opacity:1"
           id="path1767" /></g><g
         id="g1677"><path
           d="m 339.9944,496.532 1.015,4.951 h 3.341 l 0.495,2.327 h -3.341 l 0.421,2.078 h 3.664 l 0.469,2.327 h -6.336 l -2.425,-11.683 z"
           style="opacity:1;fill:#231f20;fill-opacity:1;fill-rule:nonzero;stroke:none;stop-opacity:1"
           id="path1053"
           inkscape:connector-curvature="0" /><path
           d="m 347.6675,496.532 1.015,4.951 h 3.342 l 0.495,2.327 h -3.342 l 0.422,2.078 h 3.663 l 0.469,2.327 h -6.336 l -2.426,-11.683 z"
           style="opacity:1;fill:#231f20;fill-opacity:1;fill-rule:nonzero;stroke:none;stop-opacity:1"
           id="path1057"
           inkscape:connector-curvature="0" /><path
           d="m 353.905,493.5369 h 1.239 c 1.707,0.074 2.276,1.163 2.623,2.748 l 1.856,8.985 h -2.474 l -1.858,-9.134 c -0.074,-0.346 -0.247,-0.743 -0.618,-0.817 h -0.346 z"
           style="opacity:1;fill:#231f20;fill-opacity:1;fill-rule:nonzero;stroke:none;stop-opacity:1"
           id="path1069"
           inkscape:connector-curvature="0" /><path
           d="m 359.7725,506.1357 0.446,2.08 h -2.427 l -0.421,-2.08 z"
           style="opacity:1;fill:#231f20;fill-opacity:1;fill-rule:nonzero;stroke:none;stop-opacity:1"
           id="path1073"
           inkscape:connector-curvature="0" /><path
           d="m 365.5138,496.5319 1.832,8.737 h -2.449 l -1.312,-6.262 c -0.1,-0.47 -0.422,-0.741 -0.843,-0.741 -0.47,-0.051 -0.495,0.346 -0.47,0.741 l 1.313,6.262 h -2.451 l -1.485,-7.203 c -0.248,-1.163 0.396,-1.856 1.782,-1.856 0.816,0 1.657,0.693 2.029,1.386 l -0.223,-1.064 z"
           style="opacity:1;fill:#231f20;fill-opacity:1;fill-rule:nonzero;stroke:none;stop-opacity:1"
           id="path1085"
           inkscape:connector-curvature="0" /><path
           d="m 371.9255,501.8287 -0.42,-2.054 c -0.124,-0.545 -0.273,-1.015 -0.521,-1.287 -0.149,-0.149 -0.322,-0.222 -0.544,-0.222 -0.718,0 -0.52,0.89 -0.422,1.385 l 0.497,2.302 c 0.073,0.371 0.173,0.941 0.469,1.262 0.124,0.148 0.322,0.273 0.595,0.273 0.619,0 0.495,-0.891 0.346,-1.659 m 1.337,6.387 -0.793,-3.763 c -0.346,0.742 -0.915,1.04 -1.485,1.04 -0.025,0 -0.049,0.024 -0.074,0.024 -1.609,0 -2.451,-1.634 -2.748,-2.995 l -0.618,-3.019 c -0.297,-1.51 -0.297,-3.218 1.46,-3.293 0.643,0 1.387,0.373 1.98,1.065 0.05,0.074 0.099,0.149 0.173,0.247 h 0.05 l -0.223,-0.99 h 2.278 l 2.426,11.684 z"
           style="opacity:1;fill:#231f20;fill-opacity:1;fill-rule:nonzero;stroke:none;stop-opacity:1"
           id="path1089"
           inkscape:connector-curvature="0" /><path
           d="m 379.8953,502.7201 -0.841,-3.912 c -0.098,-0.271 -0.173,-0.469 -0.322,-0.593 -0.148,-0.124 -0.347,-0.173 -0.593,-0.173 -0.497,0 -0.644,0.273 -0.595,0.766 l 0.817,3.912 c 0.049,0.297 0.173,0.569 0.371,0.768 0.149,0.147 0.346,0.247 0.619,0.247 0.544,0 0.668,-0.471 0.544,-1.015 m -0.197,2.797 c -0.347,0 -0.669,-0.024 -0.966,-0.075 -1.436,-0.247 -2.476,-1.088 -2.822,-2.92 l -0.768,-3.565 c -0.42,-1.98 0.868,-2.747 2.624,-2.747 0.322,0 0.644,0.025 0.966,0.074 1.361,0.224 2.351,1.039 2.797,2.673 l 0.768,3.565 c 0.371,1.98 -0.47,2.995 -2.599,2.995"
           style="opacity:1;fill:#231f20;fill-opacity:1;fill-rule:nonzero;stroke:none;stop-opacity:1"
           id="path1093"
           inkscape:connector-curvature="0" /></g></g></g></svg>
