<?xml version="1.0" standalone="no"?>
<!DOCTYPE svg PUBLIC "-//W3C//DTD SVG 20010904//EN"
 "http://www.w3.org/TR/2001/REC-SVG-20010904/DTD/svg10.dtd">
<svg version="1.0" xmlns="http://www.w3.org/2000/svg"
 width="213.000000pt" height="249.000000pt" viewBox="0 0 213.000000 249.000000"
 preserveAspectRatio="xMidYMid meet">
<metadata>
Created by potrace 1.10, written by Peter Selinger 2001-2011
</metadata>
<g transform="translate(0.000000,249.000000) scale(0.100000,-0.100000)"
fill="#000000" stroke="none">
<path d="M526 2319 c-20 -28 -20 -87 -1 -112 7 -11 17 -49 21 -85 7 -77 14
-88 55 -97 36 -8 47 -29 27 -53 -12 -13 -78 -147 -78 -156 0 -2 8 -3 18 -4 26
-1 132 39 132 50 0 13 -45 2 -92 -22 -21 -11 -38 -19 -38 -17 0 1 11 24 25 51
14 27 25 55 25 62 0 7 14 24 31 38 17 14 25 26 19 26 -7 0 -10 14 -8 38 2 30
7 38 27 40 13 2 35 -2 47 -9 33 -17 41 -4 10 16 -14 10 -26 24 -26 31 0 20 -9
17 -30 -8 -14 -17 -21 -20 -30 -12 -17 17 7 51 45 65 l30 11 -30 9 c-16 5 -36
7 -42 4 -15 -5 -17 13 -5 33 7 9 13 8 27 -8 10 -11 24 -20 32 -20 7 0 0 12
-16 28 -22 20 -27 32 -22 46 7 18 8 18 29 -4 21 -22 22 -23 22 -4 0 25 -18 44
-36 37 -8 -3 -14 0 -14 6 0 6 3 10 8 9 4 -1 19 2 35 6 15 5 53 5 84 1 43 -5
63 -14 85 -35 28 -29 39 -82 18 -95 -5 -3 -10 3 -10 14 0 22 -20 30 -20 9 0
-7 -12 0 -27 17 -14 16 -31 30 -37 31 -6 1 -23 5 -38 9 -38 10 -35 -7 3 -24
33 -14 89 -84 89 -110 0 -9 15 -39 34 -67 19 -28 38 -67 41 -87 5 -23 28 -62
64 -104 31 -38 62 -76 69 -85 8 -10 17 -33 22 -52 7 -32 5 -36 -21 -46 -24
-10 -33 -10 -54 4 -14 9 -25 21 -25 26 0 6 -8 10 -19 10 -10 0 -30 9 -44 20
-14 12 -60 28 -102 37 -74 16 -76 16 -120 -5 -45 -22 -85 -71 -85 -105 0 -10
-4 -15 -10 -12 -5 3 -10 15 -10 26 0 10 -5 19 -11 19 -16 0 -2 -50 20 -75 22
-25 34 -55 21 -55 -6 0 -10 6 -10 13 0 6 -15 27 -34 44 l-33 33 -1 -30 c-1
-25 3 -30 23 -30 31 0 43 -20 13 -21 -20 -1 -20 -2 6 -9 29 -9 66 -37 66 -51
0 -4 -14 -9 -32 -11 -17 -2 -33 -9 -36 -17 -3 -10 2 -11 19 -6 53 17 54 17 35
1 -25 -20 -15 -32 13 -14 15 9 23 10 32 1 19 -19 0 -33 -42 -33 -21 0 -39 -4
-39 -10 0 -16 90 -12 96 4 3 8 12 12 20 9 19 -7 18 -23 -2 -23 -8 0 -12 -4 -9
-10 4 -6 -5 -10 -19 -10 -14 0 -26 -4 -26 -10 0 -13 21 -13 54 0 17 6 26 6 26
0 0 -6 -6 -10 -14 -10 -8 0 -18 -5 -22 -11 -4 -8 3 -9 26 -4 25 5 31 4 25 -5
-14 -23 57 24 101 67 39 38 84 63 84 48 0 -3 -7 -20 -16 -36 -8 -17 -13 -33
-10 -36 4 -5 41 48 50 72 2 6 6 7 10 3 4 -3 0 -20 -8 -37 -21 -39 -21 -58 -1
-41 8 7 17 27 21 46 3 19 10 34 15 34 11 0 11 -7 0 -48 -8 -26 -6 -36 8 -50
23 -21 33 -53 23 -69 -8 -13 -55 -33 -79 -33 -14 0 -14 3 2 20 23 26 15 25
-32 -2 -32 -19 -51 -23 -121 -22 -79 2 -142 17 -142 34 0 5 13 3 29 -3 24 -9
41 -7 86 7 70 22 67 30 -6 14 -45 -9 -64 -8 -112 6 -51 15 -62 23 -101 76 -54
72 -64 119 -42 193 21 72 31 163 19 170 -6 4 -13 -19 -16 -56 -3 -34 -13 -79
-21 -99 -23 -53 -20 -107 8 -162 14 -27 22 -56 19 -65 -4 -12 -3 -13 5 -2 6 8
12 9 16 3 3 -5 -1 -13 -10 -16 -24 -9 -34 -7 -34 8 0 9 -8 12 -25 8 -39 -7
-28 -37 13 -37 17 0 32 -1 32 -3 0 -2 -20 -28 -45 -59 -57 -70 -100 -142 -90
-151 4 -4 10 -2 12 4 7 20 101 158 130 191 l28 33 34 -32 35 -31 -45 7 c-66
10 -35 -9 36 -23 67 -13 96 -31 49 -31 -25 0 -76 -20 -124 -48 -8 -5 -35 -16
-59 -23 -25 -8 -46 -20 -49 -27 -3 -10 5 -8 29 5 26 14 56 18 126 18 95 0 111
13 28 23 -56 6 -44 17 36 32 67 13 83 2 64 -43 -7 -18 -17 -32 -22 -32 -4 1
-30 5 -56 9 -52 9 -132 -7 -122 -24 3 -6 16 -5 31 0 44 17 144 9 144 -10 0 -5
-25 -12 -55 -15 -38 -5 -55 -12 -55 -22 0 -9 6 -12 18 -9 9 3 38 10 64 17 31
7 48 17 51 30 4 13 11 17 24 13 11 -4 14 -3 6 3 -23 17 1 31 41 24 l39 -6 -51
-28 c-29 -16 -52 -32 -52 -36 0 -5 -28 -21 -62 -36 -35 -15 -58 -29 -51 -32 7
-2 21 0 32 6 11 6 27 11 36 11 31 0 4 -19 -57 -42 -34 -12 -56 -24 -49 -26 6
-2 24 1 40 6 16 6 32 8 35 5 9 -9 -13 -43 -28 -43 -21 0 -51 -40 -48 -65 3
-19 -3 -24 -27 -30 -48 -10 -56 -29 -25 -54 28 -22 54 -28 54 -12 0 5 -9 11
-21 14 -29 8 -19 30 19 41 18 5 32 15 32 22 0 7 5 16 12 20 8 5 9 0 4 -17 -4
-13 -9 -51 -12 -84 -7 -73 -32 -167 -47 -177 -17 -11 -76 -10 -118 2 -35 10
-36 12 -48 79 -7 39 -20 76 -29 83 -14 11 -15 10 -9 -12 4 -14 12 -54 19 -88
10 -52 16 -66 35 -73 33 -12 32 -75 -2 -115 -14 -16 -33 -44 -41 -61 -9 -18
-34 -43 -57 -55 -57 -32 -57 -45 -1 -54 46 -7 174 15 217 38 21 11 23 -5 2
-22 -22 -18 -19 -27 12 -33 32 -6 98 32 108 62 7 23 58 68 104 93 42 23 48 44
25 85 -10 20 -17 49 -16 67 2 17 -1 51 -7 76 -5 24 -6 49 -2 55 5 5 12 26 16
45 13 69 28 89 75 107 25 10 68 38 95 63 51 48 135 90 177 90 24 0 88 -56 88
-77 0 -6 7 -16 15 -23 8 -7 15 -27 15 -44 0 -17 6 -40 14 -51 9 -14 16 -72 20
-180 4 -88 12 -180 17 -205 21 -102 21 -129 0 -166 -12 -19 -21 -42 -21 -49 0
-8 29 -38 64 -66 36 -28 67 -58 70 -65 3 -8 15 -14 26 -14 28 0 90 50 90 73 0
10 -21 37 -46 60 -25 23 -50 50 -55 60 -12 20 7 134 26 157 14 18 55 89 55 96
0 2 -4 4 -9 4 -5 0 -19 -20 -31 -45 -14 -28 -30 -47 -43 -50 -18 -3 -79 -1
-96 4 -2 1 4 12 13 26 9 13 16 29 16 35 0 18 -18 11 -25 -10 -3 -11 -11 -20
-16 -20 -14 0 -10 52 6 80 18 32 18 40 0 40 -29 0 -10 51 33 87 14 12 23 26
19 30 -5 4 -13 1 -18 -7 -9 -13 -11 -13 -16 -1 -4 11 -10 8 -24 -10 -15 -19
-19 -20 -19 -7 0 9 5 20 10 23 6 3 10 11 10 16 0 6 -4 7 -10 4 -16 -10 -12 33
7 68 13 26 13 30 1 20 -30 -25 -24 -2 8 33 45 47 44 67 -1 24 l-34 -33 -12 27
c-10 21 -10 32 -1 47 16 25 15 28 -6 22 -12 -3 -26 8 -45 38 -15 23 -25 44
-23 47 3 2 19 7 36 11 17 3 30 11 28 16 -2 6 -7 9 -12 7 -6 -2 -51 -5 -100 -7
-50 -2 -109 -9 -131 -14 -53 -14 -55 -14 -49 4 5 13 1 13 -31 -1 -21 -8 -62
-16 -91 -17 -31 -1 -52 -6 -50 -12 1 -5 11 -9 21 -7 11 2 15 -2 13 -10 -3 -7
-28 -16 -57 -20 -51 -8 -97 -25 -88 -34 2 -2 18 1 35 7 17 6 41 9 54 7 23 -4
22 -5 -4 -16 -16 -6 -28 -16 -28 -22 0 -13 17 -13 25 -1 3 5 19 12 35 16 17 4
28 10 26 14 -9 14 10 30 57 50 42 18 47 19 47 4 0 -13 3 -14 12 -5 7 7 21 12
32 11 12 0 -5 -12 -41 -29 -66 -30 -83 -47 -36 -35 27 6 27 6 9 -14 -11 -12
-25 -21 -31 -21 -7 0 -32 -9 -56 -20 -24 -11 -59 -20 -76 -20 -18 0 -33 -5
-33 -10 0 -6 6 -10 14 -8 8 2 16 -1 18 -7 2 -5 -14 -11 -34 -13 -44 -4 -52
-22 -10 -22 39 -1 65 -24 57 -49 -8 -26 -25 -18 -25 11 0 16 -3 18 -14 9 -10
-8 -16 -9 -21 -1 -3 5 -10 10 -16 10 -19 0 -8 -22 26 -53 30 -28 35 -40 41
-98 l6 -66 -43 -6 c-24 -3 -63 -9 -86 -13 -39 -6 -43 -5 -43 15 0 11 4 21 8
21 10 0 35 111 56 253 17 107 37 151 95 205 62 57 115 99 148 116 39 20 57 21
23 1 -17 -10 -20 -14 -9 -15 9 0 29 10 44 22 26 20 27 20 21 2 -3 -10 -1 -26
4 -34 8 -13 11 -12 25 5 9 11 20 29 24 40 8 19 19 22 74 16 4 -1 7 -17 7 -36
0 -32 2 -35 30 -35 19 0 30 5 30 14 0 9 7 12 20 9 25 -7 26 -23 2 -23 -10 0
-26 -6 -37 -14 -11 -7 -51 -16 -90 -19 -88 -6 -195 -29 -195 -41 0 -9 37 -5
120 13 25 6 70 10 101 11 38 0 61 5 69 15 24 29 95 13 203 -45 62 -34 120 -86
181 -162 33 -42 42 -48 76 -48 28 0 48 -8 77 -32 52 -44 129 -124 136 -141 13
-34 76 -24 100 15 88 148 88 147 60 169 -9 8 -39 15 -67 16 -28 2 -60 3 -72 4
-14 1 -27 16 -42 45 -54 112 -65 131 -92 163 -16 19 -33 32 -37 28 -3 -4 7
-22 24 -40 36 -39 63 -78 63 -92 0 -5 -21 -11 -46 -13 -52 -3 -110 -24 -139
-52 -20 -19 -21 -19 -33 0 -10 16 -10 20 0 20 7 0 -6 12 -29 26 -24 14 -43 29
-43 35 0 5 21 -4 47 -20 26 -17 50 -28 52 -25 6 5 6 5 -67 52 -34 22 -87 50
-117 63 -30 12 -55 26 -55 30 0 21 215 -19 258 -47 13 -9 26 -14 28 -11 10 9
-49 47 -82 53 -47 9 -42 22 11 30 25 3 45 11 45 16 0 13 -94 2 -122 -13 -13
-7 -41 -7 -88 0 -82 13 -122 27 -100 34 79 28 159 52 175 53 11 0 37 3 57 5
34 3 43 -2 88 -46 27 -27 53 -45 57 -41 4 4 -10 24 -32 44 -38 35 -40 40 -41
99 -2 75 -28 159 -61 194 l-24 26 11 139 c7 80 18 150 26 166 26 49 27 108 1
183 -23 68 -26 71 -83 102 -32 18 -73 35 -90 38 -26 6 -32 13 -42 50 -13 48
-51 83 -112 105 -53 18 -108 0 -156 -53 l-39 -42 -83 63 c-62 46 -92 62 -118
63 -45 2 -94 1 -119 -1 -11 -1 -52 2 -91 6 -67 6 -72 5 -88 -17z m144 -16 c0
-19 -12 -43 -21 -43 -5 0 -9 9 -9 20 0 11 -5 20 -11 20 -7 0 -8 -11 -4 -30 8
-36 -10 -41 -19 -5 -4 14 -11 25 -16 25 -12 0 -12 -2 0 -34 7 -21 6 -26 -5
-26 -9 0 -15 10 -15 26 0 16 -5 24 -12 21 -8 -2 -12 -17 -10 -37 2 -21 0 -30
-7 -25 -12 7 -15 63 -5 89 5 13 20 15 70 13 41 -1 64 -6 64 -14z m566 -33 c-3
-6 32 -41 37 -37 2 1 12 -7 23 -17 19 -19 19 -20 -6 -13 -22 5 -23 5 -8 -7 10
-7 14 -17 10 -21 -4 -5 0 -6 8 -3 13 5 15 -1 12 -28 -2 -19 -8 -34 -14 -34 -5
0 -7 -4 -4 -8 3 -5 -4 -16 -16 -26 -11 -10 -18 -12 -16 -5 2 6 -7 23 -20 36
-19 20 -27 22 -33 11 -7 -10 -9 -10 -9 2 0 10 -3 11 -8 4 -9 -15 -42 -19 -65
-9 -15 6 -16 10 -5 16 10 7 9 9 -4 9 -9 0 -22 8 -27 18 -6 9 -11 13 -11 8 0
-5 -7 -3 -15 4 -13 11 -13 16 2 41 14 23 20 26 32 16 9 -6 13 -7 9 -3 -4 5 -3
15 4 23 9 11 7 12 -8 8 -10 -3 -8 0 5 7 20 10 25 10 29 0 2 -8 8 -10 15 -3 18
14 89 24 83 11z m-225 -76 c10 -12 17 -37 17 -63 1 -54 -5 -66 -25 -50 -12 11
-13 8 -7 -16 5 -21 4 -27 -7 -23 -9 3 -16 26 -19 62 -3 37 -11 62 -21 70 -11
8 -15 21 -12 43 l5 33 27 -19 c14 -10 33 -27 42 -37z m-361 36 c0 -5 -7 -10
-15 -10 -21 0 -19 -16 6 -41 15 -15 18 -24 10 -32 -8 -8 -11 -6 -11 7 0 9 -4
15 -9 12 -5 -3 -14 8 -20 26 -14 39 -14 36 7 41 29 8 32 7 32 -3z m-50 -40
c12 -22 1 -27 -18 -8 -7 7 -12 8 -12 3 0 -5 16 -23 35 -41 19 -17 35 -38 35
-45 0 -17 -58 39 -77 75 -8 15 -10 25 -4 22 6 -4 11 -2 11 3 0 18 19 12 30 -9z
m349 -84 c-3 -57 8 -86 29 -80 12 4 13 3 4 -3 -9 -7 -2 -28 32 -87 25 -43 54
-85 65 -93 29 -20 44 -50 25 -50 -7 0 -14 6 -14 13 0 8 -11 21 -24 30 -56 36
-136 196 -144 284 -4 49 -3 53 12 41 11 -9 16 -28 15 -55z m-44 17 c-7 -17 -8
-17 -15 2 -9 24 -2 41 12 27 6 -6 7 -19 3 -29z m205 -36 c0 -9 43 -5 93 8 27
7 32 1 28 -33 -1 -7 5 -19 14 -28 20 -20 19 -22 -13 -68 -27 -40 -60 -62 -50
-34 4 9 0 15 -8 15 -16 0 -19 -13 -4 -22 15 -9 -7 -35 -29 -35 -9 0 -27 7 -39
16 -28 19 -30 39 -3 24 29 -15 51 -13 45 5 -4 9 -13 13 -24 10 -12 -4 -19 1
-24 17 -5 18 -8 20 -15 9 -7 -11 -13 -6 -26 19 -13 25 -15 45 -10 89 4 31 10
60 13 65 5 9 52 -42 52 -57z m-510 -16 c-1 -25 -1 -25 -15 -7 -8 11 -15 31
-15 45 1 25 1 25 15 7 8 -11 15 -31 15 -45z m818 38 c83 -38 97 -53 116 -122
22 -80 14 -125 -31 -191 -18 -26 -33 -54 -33 -62 0 -24 9 -16 25 23 22 52 30
33 15 -36 -7 -33 -10 -69 -7 -81 4 -16 0 -20 -17 -20 -12 0 -26 -4 -32 -10 -6
-6 -15 -6 -24 1 -13 8 -12 12 5 25 11 8 27 19 35 24 8 5 12 12 8 15 -4 4 -17
0 -30 -9 -31 -22 -45 -20 -24 3 9 10 26 43 36 72 23 63 23 59 10 59 -5 0 -13
-12 -16 -27 -12 -51 -36 -87 -92 -145 -68 -70 -99 -77 -44 -10 42 49 61 92 43
92 -6 0 -11 -4 -11 -9 0 -4 -10 -19 -22 -33 -13 -14 -28 -33 -34 -44 -18 -31
-30 -26 -31 13 -1 44 6 61 18 42 4 -7 11 -10 16 -6 4 4 2 16 -4 26 -7 11 -8
23 -2 32 7 11 10 9 15 -8 4 -13 11 -23 16 -23 13 0 -2 42 -21 58 -14 12 -12
13 12 7 15 -3 27 -1 27 5 0 5 -9 10 -19 10 -11 0 -29 12 -40 28 -16 21 -20 23
-21 9 0 -9 5 -25 11 -35 9 -14 7 -29 -10 -66 -11 -27 -21 -55 -21 -62 0 -8 -4
-14 -10 -14 -5 0 -10 4 -10 8 0 5 -15 16 -34 24 -29 14 -34 22 -38 60 -6 54 7
83 43 98 16 7 34 18 40 26 15 18 29 18 29 1 0 -14 40 -37 64 -37 7 0 25 -9 40
-21 14 -11 26 -16 26 -10 0 14 -49 50 -77 57 -12 4 -23 9 -23 13 0 8 67 39
101 46 28 7 103 64 95 72 -3 3 -20 -4 -39 -16 -61 -38 -171 -90 -179 -85 -16
10 -6 30 27 54 35 25 65 93 65 148 0 31 -25 23 -26 -9 -2 -54 -4 -69 -13 -69
-4 0 -6 11 -3 25 2 15 0 25 -7 25 -6 0 -11 -8 -11 -19 0 -10 -8 -29 -19 -42
-10 -13 -16 -29 -14 -36 2 -6 -1 -14 -6 -18 -6 -3 -11 -14 -11 -24 0 -20 -46
-68 -56 -58 -4 3 14 42 40 86 25 44 46 87 46 96 0 8 5 15 10 15 6 0 10 7 10
15 0 8 4 15 10 15 5 0 12 11 16 25 8 31 30 32 92 4z m-393 -117 c-8 -8 -25 10
-25 26 0 13 2 13 14 -4 8 -10 13 -21 11 -22z m285 -17 c0 -8 -7 -15 -15 -15
-9 0 -12 6 -9 15 4 8 10 15 15 15 5 0 9 -7 9 -15z m-246 -34 c-7 -9 -34 10
-34 24 0 13 3 12 18 -2 10 -10 17 -20 16 -22z m18 -59 c-6 -15 -7 -15 -10 1
-2 9 -7 17 -11 17 -4 0 -8 7 -8 15 0 13 3 13 18 -1 11 -9 15 -23 11 -32z m34
-17 c8 -21 24 -19 25 3 0 14 2 14 8 -3 10 -23 -8 -54 -19 -35 -4 7 -11 12 -16
12 -5 -1 -8 6 -6 15 2 8 -1 12 -7 8 -6 -3 -11 -1 -11 4 0 16 20 13 26 -4z m4
-106 c0 -6 -4 -7 -10 -4 -5 3 -10 11 -10 16 0 6 5 7 10 4 6 -3 10 -11 10 -16z
m-310 -13 c0 -7 3 -6 9 2 13 21 23 19 32 -7 7 -18 12 -21 23 -12 11 9 14 6 14
-14 0 -14 -4 -28 -9 -31 -5 -3 -9 3 -9 13 0 15 -2 16 -10 3 -5 -8 -6 -17 -1
-20 10 -7 9 -50 -1 -50 -4 0 -8 9 -8 21 0 11 -4 17 -10 14 -5 -3 -8 -22 -5
-42 5 -41 -8 -63 -39 -64 -20 0 -21 -1 -1 -9 19 -8 19 -9 -2 -9 -12 -1 -25 4
-28 10 -4 6 -14 8 -22 5 -8 -3 -23 -1 -33 4 -15 8 -18 7 -14 -3 13 -35 110
-50 137 -22 9 8 21 31 27 50 13 39 17 41 43 21 25 -19 21 -72 -8 -122 -25 -42
-26 -43 -74 -40 -50 3 -111 36 -111 60 0 7 -9 23 -20 36 -11 12 -17 26 -15 30
3 5 -1 11 -7 14 -7 3 -2 3 12 0 l25 -7 -25 23 c-18 16 -20 20 -7 16 11 -3 16
-2 12 4 -3 6 -14 10 -23 10 -15 0 -15 2 -2 10 13 8 12 10 -3 10 -10 0 -15 5
-12 10 4 6 12 7 18 3 7 -4 6 0 -2 10 -12 15 -9 21 12 18 4 0 6 2 6 7 -3 19 2
42 9 41 14 -2 52 13 48 20 -2 3 13 5 35 3 21 -2 39 -9 39 -16z m75 14 c3 -5
-1 -10 -10 -10 -9 0 -13 5 -10 10 3 6 8 10 10 10 2 0 7 -4 10 -10z m40 -20 c3
-5 2 -10 -4 -10 -5 0 -13 5 -16 10 -3 6 -2 10 4 10 5 0 13 -4 16 -10z m205
-26 c0 -8 -4 -12 -10 -9 -5 3 -10 10 -10 16 0 5 5 9 10 9 6 0 10 -7 10 -16z
m-186 -19 c6 -11 18 -25 26 -32 13 -11 11 -12 -12 -7 -18 4 -28 2 -28 -5 0 -6
5 -11 10 -11 6 0 10 -6 8 -12 -5 -31 27 -92 44 -82 5 3 1 12 -9 20 -17 12 -16
13 9 14 14 0 34 3 43 6 27 11 -3 23 -42 17 -39 -7 -42 2 -9 32 26 24 39 23 29
-1 -3 -8 0 -14 7 -14 6 0 9 4 6 9 -7 11 48 23 69 15 20 -8 19 -22 -2 -26 -12
-2 -17 -14 -17 -48 -1 -42 -2 -44 -36 -51 -48 -10 -80 8 -97 56 -8 22 -19 52
-25 67 -6 15 -15 25 -20 22 -5 -3 -7 -13 -3 -21 4 -13 3 -14 -9 -4 -21 18 -9
40 20 36 26 -2 31 13 12 34 -11 11 -10 13 1 9 8 -2 19 -13 25 -23z m62 -2 c38
-24 55 -43 39 -43 -10 0 -48 25 -73 48 -34 30 -18 28 34 -5z m120 -19 c-3 -9
-6 -17 -6 -20 0 -2 -7 -1 -15 2 -12 5 -13 10 -4 20 16 19 33 18 25 -2z m105
-61 c22 -20 26 -32 24 -69 -1 -28 -8 -51 -20 -62 -17 -16 -17 -16 -10 3 14 35
17 82 6 89 -7 5 -11 -6 -11 -31 0 -21 -4 -45 -10 -53 -6 -9 -5 -17 2 -21 10
-7 -6 -39 -50 -99 -2 -2 -7 2 -11 9 -6 9 -10 6 -15 -13 -7 -27 -40 -51 -56
-41 -6 3 -10 17 -10 31 0 14 -5 35 -12 47 -15 29 -19 97 -5 97 23 0 47 34 47
66 0 18 5 36 10 39 6 3 10 -1 10 -9 0 -8 5 -18 10 -21 7 -4 8 8 4 36 -6 36 -5
41 9 36 12 -4 14 -2 10 10 -5 13 -2 13 23 -3 16 -10 41 -28 55 -41z m213 -29
c33 -19 46 -32 46 -48 0 -23 -16 -27 -52 -11 -10 4 -25 4 -34 1 -8 -3 -35 -1
-59 5 -38 10 -42 13 -30 25 7 8 17 14 22 14 4 0 14 9 21 20 16 26 30 25 86 -6z
m46 6 c0 -5 -4 -10 -9 -10 -6 0 -13 5 -16 10 -3 6 1 10 9 10 9 0 16 -4 16 -10z
m-536 -81 c-11 -18 -32 -9 -27 11 4 16 8 18 19 9 8 -6 11 -15 8 -20z m336 16
c0 -8 -4 -15 -10 -15 -5 0 -10 7 -10 15 0 8 5 15 10 15 6 0 10 -7 10 -15z m93
-87 c30 -46 60 -93 66 -106 7 -12 16 -20 20 -18 5 3 25 -9 46 -27 l38 -33 -39
4 c-22 2 -58 -3 -82 -11 -33 -11 -42 -12 -42 -2 0 7 14 18 30 25 17 7 29 15
26 17 -5 5 -49 -8 -146 -43 -36 -13 -70 -24 -75 -24 -19 0 79 51 115 60 l35 8
-32 1 c-33 1 -76 -14 -103 -35 -8 -6 -29 -15 -46 -18 -28 -6 -33 -4 -48 28
-21 44 -20 51 4 62 24 11 159 126 159 137 2 14 -16 7 -44 -19 -46 -42 -42 -17
5 31 24 25 47 45 51 45 4 0 31 -37 62 -82z m100 30 c-1 -20 2 -25 13 -21 9 3
14 -2 14 -15 0 -12 5 -24 12 -28 8 -5 9 3 5 29 -9 56 10 44 26 -15 18 -63 30
-158 21 -158 -4 0 -23 15 -44 33 -20 17 -45 37 -55 43 -27 15 -10 34 31 34 23
0 33 4 28 11 -4 7 -20 9 -40 6 -26 -4 -32 -2 -27 9 4 10 -1 13 -17 12 -13 -2
-28 5 -37 19 -14 20 -13 24 11 48 33 33 62 29 59 -7z m-693 -48 c0 -5 -4 -10
-10 -10 -5 0 -10 5 -10 10 0 6 5 10 10 10 6 0 10 -4 10 -10z m330 -110 c0 -5
-5 -10 -11 -10 -5 0 -7 5 -4 10 3 6 8 10 11 10 2 0 4 -4 4 -10z m-75 -37 c-33
-17 -50 -22 -53 -14 -3 9 -10 8 -27 -3 -32 -21 -130 -48 -162 -44 -28 3 -28 3
14 30 33 21 57 28 115 32 40 3 87 9 103 15 56 17 60 10 10 -16z m-265 -2 c0
-19 -22 -23 -38 -7 -15 15 -14 16 11 16 15 0 27 -4 27 -9z m320 -12 c0 -5 -7
-9 -15 -9 -15 0 -20 12 -9 23 8 8 24 -1 24 -14z m-70 -18 c0 -11 -39 -59 -40
-49 0 14 23 58 32 58 4 0 8 -4 8 -9z m330 -6 c-3 -12 -86 -37 -108 -33 -10 2
8 13 38 25 57 22 73 24 70 8z m-111 -63 c-12 -5 -39 17 -39 30 0 5 11 1 24 -9
13 -10 20 -20 15 -21z m555 -241 c21 -35 34 -47 45 -43 10 4 8 -2 -7 -18 -25
-27 -28 -58 -8 -85 12 -17 19 -18 62 -8 27 6 50 10 52 8 2 -2 -4 -17 -13 -34
-12 -25 -22 -31 -48 -31 -43 1 -67 16 -116 72 -36 41 -40 49 -31 72 6 18 20
28 40 33 20 3 28 9 22 15 -14 14 -69 -17 -77 -42 -4 -12 -10 -20 -13 -18 -21
9 -112 74 -112 79 0 14 97 48 135 49 38 0 43 -3 69 -49z m-1180 4 c-10 -8 -23
-14 -29 -14 -5 -1 1 8 15 19 14 10 27 17 29 14 3 -2 -4 -11 -15 -19z m1363
-71 c9 -24 -18 -65 -41 -63 -12 1 -38 -1 -60 -6 -28 -6 -40 -4 -47 6 -13 21
-11 49 5 49 8 0 16 7 20 15 8 22 114 21 123 -1z m-82 -165 c-8 -11 -42 -12
-49 -1 -3 5 8 9 25 10 16 0 27 -4 24 -9z m-1330 -127 c4 -19 3 -38 -2 -42 -16
-14 -88 -36 -105 -33 -33 8 -3 40 43 46 23 3 46 10 52 16 7 7 -5 9 -41 4 -34
-4 -52 -2 -52 5 0 6 -2 17 -5 24 -4 11 7 14 49 14 54 0 55 -1 61 -34z m196 -4
c27 -33 24 -61 -8 -80 -27 -15 -29 -15 -51 13 -16 19 -19 29 -10 29 14 0 68
39 55 40 -4 0 -22 -7 -39 -16 -30 -16 -78 -12 -78 6 0 8 61 26 98 29 8 1 22
-9 33 -21z m-152 -25 c0 -16 -4 -37 -9 -48 -6 -15 -9 -8 -9 28 -1 26 4 47 9
47 6 0 10 -12 9 -27z m67 -38 l37 -35 -28 -30 -29 -30 -27 26 c-22 21 -26 31
-19 45 6 10 10 27 10 38 0 30 13 26 56 -14z m-101 -29 c12 -62 4 -79 -42 -92
l-43 -13 0 39 c0 21 -2 44 -5 52 -3 8 9 19 32 30 52 22 51 22 58 -16z m-123 2
c21 -17 29 -106 10 -113 -31 -12 -52 -4 -58 20 -7 27 -24 34 -24 11 0 -8 -3
-16 -7 -19 -5 -2 -3 -2 4 -1 6 2 14 -3 16 -11 7 -16 -25 -23 -72 -15 l-34 5
37 18 c24 11 48 35 68 67 34 54 36 56 60 38z m919 -44 c16 -20 29 -17 29 6 0
11 5 20 11 20 7 0 8 -7 4 -17 -4 -10 -9 -44 -12 -75 l-6 -57 57 -59 c51 -54
71 -82 46 -67 -6 3 -13 -1 -16 -9 -3 -9 -11 -13 -17 -9 -5 3 -16 -2 -23 -11
-12 -17 -13 -17 -31 1 -43 40 -83 73 -92 73 -5 0 -14 6 -20 14 -8 10 -6 25 10
60 16 36 19 59 15 101 -6 49 -5 53 14 48 10 -3 25 -11 31 -19z m-739 -60 c-10
-21 -17 -25 -40 -20 -15 3 -21 3 -14 0 17 -8 5 -24 -19 -24 -19 0 -19 1 -3 26
10 14 23 23 31 20 8 -4 11 -1 8 5 -4 5 -4 22 0 36 l6 26 21 -21 c19 -18 20
-25 10 -48z"/>
<path d="M1060 2060 c0 -19 32 -44 43 -34 7 8 -22 54 -34 54 -5 0 -9 -9 -9
-20z"/>
<path d="M1125 2050 c-3 -6 1 -7 9 -4 18 7 21 14 7 14 -6 0 -13 -4 -16 -10z"/>
<path d="M1141 2027 c-14 -6 -26 -19 -28 -27 -3 -10 -1 -9 7 3 12 18 40 24 40
7 0 -5 7 -10 16 -10 8 0 12 5 9 10 -3 6 1 10 10 10 9 0 13 5 10 10 -8 13 -35
12 -64 -3z"/>
<path d="M1140 1969 c0 -5 5 -7 10 -4 6 3 10 8 10 11 0 2 -4 4 -10 4 -5 0 -10
-5 -10 -11z"/>
<path d="M1405 2069 c-4 -6 -5 -12 -2 -15 2 -3 7 2 10 11 7 17 1 20 -8 4z"/>
<path d="M1480 1936 c-7 -14 -34 -35 -61 -48 -42 -19 -63 -38 -44 -38 37 0
135 70 135 97 0 21 -16 15 -30 -11z"/>
<path d="M1425 1830 c-3 -5 -1 -10 4 -10 6 0 11 5 11 10 0 6 -2 10 -4 10 -3 0
-8 -4 -11 -10z"/>
<path d="M1416 1802 c-3 -5 1 -9 9 -9 8 0 12 4 9 9 -3 4 -7 8 -9 8 -2 0 -6 -4
-9 -8z"/>
<path d="M1206 1738 c-5 -18 -8 -20 -15 -9 -5 7 -11 9 -14 4 -4 -6 4 -15 16
-20 21 -10 23 -8 25 18 3 35 -3 38 -12 7z"/>
<path d="M752 1697 c-12 -13 -19 -26 -16 -30 4 -3 15 4 25 16 l18 22 1 -22 c0
-13 -4 -23 -8 -23 -5 0 -9 -6 -9 -13 0 -15 46 -40 48 -26 3 19 5 25 17 47 8
14 9 22 2 22 -5 0 -10 -4 -10 -10 0 -19 -19 -10 -33 15 l-13 26 -22 -24z m40
-49 c-7 -7 -12 -8 -12 -2 0 14 12 26 19 19 2 -3 -1 -11 -7 -17z"/>
<path d="M810 1595 c-7 -9 -11 -18 -8 -20 3 -3 11 1 18 10 7 9 11 18 8 20 -3
3 -11 -1 -18 -10z"/>
<path d="M892 1528 c-14 -14 -16 -28 -3 -28 9 0 24 30 18 36 -2 2 -9 -2 -15
-8z"/>
<path d="M760 1482 c0 -10 41 -24 49 -17 6 7 0 11 -26 19 -13 4 -23 3 -23 -2z"/>
<path d="M860 1479 c0 -5 5 -7 10 -4 6 3 10 8 10 11 0 2 -4 4 -10 4 -5 0 -10
-5 -10 -11z"/>
<path d="M1005 1540 c-3 -5 1 -10 9 -10 8 0 18 5 21 10 3 6 -1 10 -9 10 -8 0
-18 -4 -21 -10z"/>
<path d="M1175 1600 c3 -5 8 -10 11 -10 2 0 4 5 4 10 0 6 -5 10 -11 10 -5 0
-7 -4 -4 -10z"/>
<path d="M1152 1554 c-7 -8 -8 -14 -3 -14 10 0 25 19 20 25 -2 1 -10 -3 -17
-11z"/>
<path d="M1128 1460 c15 -27 31 -50 36 -50 11 0 0 27 -27 67 -34 50 -40 39 -9
-17z"/>
<path d="M1080 1490 c0 -6 7 -25 17 -43 9 -17 19 -43 24 -57 l7 -25 1 25 c0
14 -8 44 -19 68 -18 41 -30 53 -30 32z"/>
<path d="M1065 1470 c3 -14 8 -46 12 -72 3 -26 10 -45 14 -42 16 9 9 68 -12
104 -16 28 -19 30 -14 10z"/>
<path d="M1325 1410 c3 -5 8 -10 11 -10 2 0 4 5 4 10 0 6 -5 10 -11 10 -5 0
-7 -4 -4 -10z"/>
<path d="M1250 1322 c-25 -8 -81 -44 -77 -49 3 -2 22 5 43 16 22 10 46 21 54
23 7 2 10 7 5 10 -6 3 -17 3 -25 0z"/>
<path d="M875 1245 c-22 -7 -31 -13 -20 -13 11 0 36 6 55 13 45 17 17 18 -35
0z"/>
<path d="M1742 951 c-11 -6 -9 -9 6 -13 15 -4 19 -2 15 8 -6 16 -4 16 -21 5z"/>
<path d="M1637 938 c-7 -5 0 -6 17 -4 16 3 31 7 33 10 8 8 -37 2 -50 -6z"/>
<path d="M1713 915 c0 -7 6 -11 14 -8 7 3 13 6 13 8 0 2 -6 5 -13 8 -8 3 -14
-1 -14 -8z"/>
<path d="M1749 858 c-11 -20 -10 -21 3 -11 8 7 17 11 20 8 2 -3 5 2 5 10 0 22
-15 18 -28 -7z"/>
<path d="M1788 825 c-8 -19 -8 -28 2 -40 18 -22 33 -18 20 5 -6 12 -8 30 -5
40 9 28 -3 25 -17 -5z"/>
<path d="M1930 860 c-29 -9 -27 -11 18 -15 20 -2 32 1 29 8 -5 15 -17 16 -47
7z"/>
<path d="M1885 850 c-3 -5 -1 -10 4 -10 6 0 11 5 11 10 0 6 -2 10 -4 10 -3 0
-8 -4 -11 -10z"/>
<path d="M498 573 c7 -3 16 -2 19 1 4 3 -2 6 -13 5 -11 0 -14 -3 -6 -6z"/>
<path d="M720 516 c0 -2 7 -9 15 -16 9 -7 15 -8 15 -2 0 5 -7 12 -15 16 -8 3
-15 4 -15 2z"/>
<path d="M640 483 c0 -13 29 -38 35 -31 3 3 -4 13 -15 23 -11 10 -20 13 -20 8z"/>
<path d="M551 481 c-7 -5 -11 -15 -9 -22 3 -10 8 -7 17 9 13 24 12 26 -8 13z"/>
<path d="M556 441 c-4 -7 -5 -15 -2 -18 9 -9 19 4 14 18 -4 11 -6 11 -12 0z"/>
<path d="M525 400 c3 -5 8 -10 11 -10 2 0 4 5 4 10 0 6 -5 10 -11 10 -5 0 -7
-4 -4 -10z"/>
<path d="M1355 400 c3 -5 8 -10 11 -10 2 0 4 5 4 10 0 6 -5 10 -11 10 -5 0 -7
-4 -4 -10z"/>
<path d="M1371 376 c-16 -19 -11 -29 8 -17 7 5 12 14 9 21 -3 9 -8 7 -17 -4z"/>
<path d="M1344 258 c-4 -7 -4 -10 1 -6 4 4 14 3 21 -2 6 -6 16 -10 20 -9 20 3
35 -2 29 -10 -3 -5 -1 -12 5 -16 15 -9 12 -28 -2 -19 -7 4 -10 3 -5 -1 4 -5
16 -9 27 -10 20 -2 20 -1 1 19 -10 12 -16 27 -14 34 3 6 -4 13 -14 14 -33 2
-38 3 -50 11 -6 4 -15 2 -19 -5z"/>
<path d="M315 2320 c-3 -5 -26 -12 -51 -16 -27 -4 -43 -11 -41 -18 3 -6 9 -10
14 -9 5 1 14 -7 21 -17 10 -17 9 -20 -12 -26 -14 -3 -30 -3 -35 1 -13 8 -14
-5 -1 -25 8 -12 11 -12 28 3 21 19 32 22 32 7 0 -5 -18 -20 -40 -32 -22 -13
-40 -26 -40 -30 0 -15 26 -8 63 17 29 20 37 22 37 10 0 -8 -7 -15 -15 -15 -8
0 -15 -5 -15 -10 0 -6 7 -13 15 -16 8 -4 15 -9 15 -13 0 -6 -106 -30 -155 -36
-11 -1 -19 -5 -18 -9 7 -27 10 -29 31 -17 12 6 41 15 64 20 24 5 51 12 61 16
14 6 17 2 17 -25 0 -25 -3 -31 -16 -26 -31 12 -32 -4 -2 -34 16 -17 31 -30 34
-30 2 0 4 27 4 59 0 33 4 62 8 65 10 6 121 10 142 5 8 -2 15 3 15 11 0 17 -73
21 -133 8 l-33 -8 3 43 c3 39 6 44 47 63 41 20 43 22 24 32 -11 6 -24 7 -29 3
-5 -5 -21 -11 -36 -15 -38 -9 -36 10 2 32 16 9 30 20 30 23 0 11 -29 19 -35 9z
m-30 -40 c-3 -5 -10 -10 -16 -10 -5 0 -9 5 -9 10 0 6 7 10 16 10 8 0 12 -4 9
-10z"/>
<path d="M140 2219 c0 -5 5 -7 10 -4 6 3 10 8 10 11 0 2 -4 4 -10 4 -5 0 -10
-5 -10 -11z"/>
<path d="M360 2077 c0 -23 39 -52 52 -39 8 8 5 16 -13 31 -28 24 -39 26 -39 8z"/>
<path d="M820 2051 c0 -13 6 -18 23 -16 33 4 34 4 13 20 -26 20 -36 19 -36 -4z"/>
<path d="M175 2033 c9 -37 22 -50 36 -36 9 9 8 18 -5 37 -22 35 -40 34 -31 -1z"/>
<path d="M730 2042 c0 -4 20 -13 45 -20 48 -13 55 -25 28 -54 -9 -10 -11 -18
-5 -18 6 0 14 5 18 11 4 7 21 9 45 5 24 -4 39 -2 39 4 0 5 -4 10 -9 10 -5 0
-33 16 -62 35 -49 32 -99 46 -99 27z"/>
<path d="M380 1986 c0 -2 11 -6 25 -8 13 -3 22 -1 19 3 -5 9 -44 13 -44 5z"/>
<path d="M546 1977 c3 -10 9 -15 12 -12 3 3 0 11 -7 18 -10 9 -11 8 -5 -6z"/>
<path d="M640 1951 c0 -9 64 -18 93 -13 9 2 15 8 12 13 -8 12 -105 12 -105 0z"/>
<path d="M840 1941 c0 -9 52 -22 60 -15 7 7 -23 24 -42 24 -10 0 -18 -4 -18
-9z"/>
<path d="M782 1889 c-48 -31 -33 -34 19 -4 24 13 37 25 29 25 -8 0 -30 -10
-48 -21z"/>
<path d="M799 1867 c-46 -24 -97 -51 -114 -61 -16 -9 -47 -19 -67 -22 -21 -4
-35 -11 -32 -16 4 -6 19 -7 35 -4 35 7 182 79 217 106 13 11 34 20 46 20 11 0
28 5 36 10 12 8 10 10 -11 10 -14 0 -64 -20 -110 -43z"/>
<path d="M222 1874 c10 -10 20 -16 22 -13 3 3 -5 11 -17 18 -21 13 -21 12 -5
-5z"/>
<path d="M336 1865 c6 -15 -57 -99 -82 -109 -8 -3 -28 1 -44 9 -33 17 -50 19
-50 6 0 -5 15 -14 33 -21 17 -6 39 -15 47 -19 9 -5 20 0 31 13 10 12 21 18 25
14 4 -4 1 -15 -6 -23 -10 -12 -10 -19 -2 -27 7 -7 9 -34 5 -76 -6 -62 -5 -64
15 -58 12 3 30 8 41 11 11 4 21 0 25 -10 3 -8 10 -15 16 -15 13 0 13 120 0
155 -11 28 -26 30 -75 9 -19 -8 -19 -7 -4 16 9 14 30 29 47 35 18 5 32 13 32
17 0 13 -34 9 -58 -8 -34 -23 -26 -2 13 36 41 40 45 60 10 60 -17 0 -23 -4
-19 -15z m32 -185 c5 -48 -5 -77 -28 -83 -15 -4 -20 0 -20 14 0 11 7 19 18 20
16 1 16 2 0 6 -22 6 -23 19 -3 27 8 3 15 10 15 15 0 6 -7 8 -15 5 -9 -4 -15 0
-15 9 0 16 17 27 35 23 6 -1 11 -17 13 -36z"/>
<path d="M840 1840 c-9 -6 -10 -10 -3 -10 6 0 15 5 18 10 8 12 4 12 -15 0z"/>
<path d="M206 1815 c-11 -8 -15 -15 -9 -15 6 0 16 7 23 15 16 19 11 19 -14 0z"/>
<path d="M250 1822 c0 -5 7 -16 16 -23 14 -12 16 -11 13 5 -4 20 -29 35 -29
18z"/>
<path d="M937 1799 c-18 -20 -18 -21 2 -14 16 5 19 3 15 -8 -3 -8 -1 -18 5
-22 6 -3 11 0 11 7 1 7 12 0 25 -17 26 -32 29 -32 40 3 6 21 4 23 -15 17 -19
-6 -21 -4 -15 16 6 18 4 21 -9 16 -10 -4 -19 -1 -22 8 -8 20 -16 19 -37 -6z"/>
<path d="M1058 1745 c2 -19 8 -35 14 -35 13 0 6 63 -8 67 -6 2 -8 -10 -6 -32z"/>
<path d="M194 1691 c4 -6 -2 -16 -14 -23 -25 -16 -26 -31 -2 -24 14 5 22 -1
31 -20 11 -25 9 -29 -29 -65 -45 -43 -46 -45 -24 -53 10 -4 23 3 35 19 16 20
24 22 42 15 12 -6 51 -16 85 -24 61 -14 92 -13 92 4 0 4 11 11 25 14 14 4 25
11 25 17 0 8 -9 8 -27 3 -16 -5 -50 -7 -78 -5 -27 1 -67 4 -87 4 -37 2 -48 10
-29 21 5 4 8 32 6 64 -3 53 -5 57 -30 60 -17 2 -25 0 -21 -7z"/>
<path d="M134 1632 c3 -5 0 -13 -6 -15 -9 -4 -10 -6 -1 -6 17 -1 25 16 12 25
-7 4 -9 3 -5 -4z"/>
<path d="M130 1580 c8 -5 20 -10 25 -10 6 0 3 5 -5 10 -8 5 -19 10 -25 10 -5
0 -3 -5 5 -10z"/>
<path d="M1580 1510 c0 -5 5 -10 11 -10 5 0 7 5 4 10 -3 6 -8 10 -11 10 -2 0
-4 -4 -4 -10z"/>
<path d="M873 1406 c-32 -21 -42 -36 -24 -36 13 0 67 47 61 52 -3 3 -19 -5
-37 -16z"/>
<path d="M876 1355 c-11 -8 -17 -17 -14 -20 3 -3 16 3 29 14 27 23 14 28 -15
6z"/>
<path d="M800 1310 c-21 -7 -21 -8 -5 -9 11 0 27 4 35 9 18 11 5 11 -30 0z"/>
<path d="M1545 1220 c-3 -5 -2 -10 4 -10 5 0 13 5 16 10 3 6 2 10 -4 10 -5 0
-13 -4 -16 -10z"/>
<path d="M1068 1213 c6 -2 18 -2 25 0 6 3 1 5 -13 5 -14 0 -19 -2 -12 -5z"/>
<path d="M1393 1202 c-13 -2 -23 -6 -23 -10 0 -10 123 -2 135 9 9 9 -59 10
-112 1z"/>
<path d="M901 1159 c-25 -5 -49 -13 -54 -18 -16 -16 86 -1 103 15 16 15 14 16
-49 3z"/>
<path d="M355 1023 c-11 -38 -14 -63 -7 -77 7 -17 10 -15 15 21 6 34 12 43 38
52 19 7 28 15 23 22 -5 9 6 10 45 5 36 -5 51 -4 46 4 -3 6 3 10 14 10 12 0 21
5 21 11 0 15 -127 6 -143 -10 -16 -16 -27 -14 -21 4 4 8 1 15 -4 15 -6 0 -18
-26 -27 -57z"/>
<path d="M1317 1041 c3 -21 0 -48 -6 -60 -8 -14 -8 -21 -1 -21 12 0 32 48 25
60 -3 5 -1 11 5 15 6 3 10 -4 10 -17 0 -25 29 -74 30 -50 0 30 -26 92 -37 87
-7 -2 -13 2 -13 10 0 8 -4 15 -9 15 -5 0 -7 -17 -4 -39z"/>
<path d="M454 1004 c-18 -14 -18 -15 4 -4 12 6 22 13 22 15 0 8 -5 6 -26 -11z"/>
<path d="M1137 999 c12 -12 24 -21 27 -18 2 2 -8 13 -22 23 l-27 19 22 -24z"/>
<path d="M1403 972 c-36 -54 -76 -142 -69 -149 3 -3 17 19 32 48 14 29 38 70
51 91 14 20 23 42 21 48 -2 7 -18 -10 -35 -38z"/>
<path d="M1831 984 c0 -11 3 -14 6 -6 3 7 2 16 -1 19 -3 4 -6 -2 -5 -13z"/>
<path d="M395 981 c-3 -6 4 -15 15 -21 31 -17 42 -8 15 13 -14 9 -26 13 -30 8z"/>
<path d="M1430 949 c0 -5 5 -7 10 -4 6 3 10 8 10 11 0 2 -4 4 -10 4 -5 0 -10
-5 -10 -11z"/>
<path d="M385 939 c-10 -15 1 -23 20 -15 9 3 13 10 10 16 -8 13 -22 13 -30 -1z"/>
<path d="M1010 920 c0 -5 5 -10 10 -10 6 0 10 5 10 10 0 6 -4 10 -10 10 -5 0
-10 -4 -10 -10z"/>
<path d="M1516 883 c9 -57 9 -81 -1 -150 -6 -42 -4 -58 10 -79 16 -24 16 -28
2 -36 -33 -18 -77 -60 -77 -73 0 -8 11 -2 28 14 15 14 40 36 57 48 28 20 29
22 12 40 -20 23 -23 84 -6 132 9 24 8 46 -2 91 -16 72 -35 82 -23 13z"/>
<path d="M1875 920 c-3 -5 3 -10 14 -10 12 0 21 5 21 10 0 6 -6 10 -14 10 -8
0 -18 -4 -21 -10z"/>
<path d="M525 911 c-6 -11 9 -23 19 -14 9 9 7 23 -3 23 -6 0 -12 -4 -16 -9z"/>
<path d="M1448 883 c-22 -24 -24 -30 -12 -41 7 -7 16 -12 19 -12 18 1 18 -2 1
-15 -11 -8 -16 -18 -13 -22 9 -8 57 36 57 53 0 10 -9 12 -32 7 l-32 -6 22 23
c19 21 28 40 19 40 -2 0 -15 -12 -29 -27z"/>
<path d="M350 877 c0 -20 40 -30 47 -11 3 8 2 18 -2 22 -4 4 -10 1 -12 -6 -4
-10 -8 -10 -19 -1 -11 9 -14 8 -14 -4z"/>
<path d="M360 831 c0 -12 5 -21 10 -21 6 0 10 6 10 14 0 8 -4 18 -10 21 -5 3
-10 -3 -10 -14z"/>
<path d="M471 805 c-11 -24 -21 -52 -21 -60 0 -26 18 -16 25 14 7 33 29 56 45
46 17 -11 11 11 -9 29 -18 16 -19 15 -40 -29z"/>
<path d="M713 710 c-1 -17 2 -30 6 -30 11 0 22 40 15 52 -10 16 -19 7 -21 -22z"/>
<path d="M1588 693 c7 -3 16 -2 19 1 4 3 -2 6 -13 5 -11 0 -14 -3 -6 -6z"/>
<path d="M716 638 c-9 -12 -13 -24 -11 -27 6 -5 45 29 45 41 0 15 -19 8 -34
-14z"/>
<path d="M377 549 c7 -7 15 -10 18 -7 3 3 -2 9 -12 12 -14 6 -15 5 -6 -5z"/>
<path d="M1511 464 c0 -11 3 -14 6 -6 3 7 2 16 -1 19 -3 4 -6 -2 -5 -13z"/>
<path d="M240 361 c0 -6 4 -13 10 -16 6 -3 7 1 4 9 -7 18 -14 21 -14 7z"/>
<path d="M578 263 c7 -3 16 -2 19 1 4 3 -2 6 -13 5 -11 0 -14 -3 -6 -6z"/>
</g>
</svg>
