<?xml version="1.0" encoding="UTF-8" standalone="no"?>
<!-- Created with Inkscape (http://www.inkscape.org/) -->

<svg
   id="svg2"
   sodipodi:version="0.32"
   inkscape:version="1.1.1 (3bf5ae0d25, 2021-09-20)"
   width="106.66662"
   height="234.65405"
   version="1.0"
   sodipodi:docname="Judo-caligraphie-red.svg"
   viewBox="0 0 99.999954 219.98817"
   xmlns:inkscape="http://www.inkscape.org/namespaces/inkscape"
   xmlns:sodipodi="http://sodipodi.sourceforge.net/DTD/sodipodi-0.dtd"
   xmlns="http://www.w3.org/2000/svg"
   xmlns:svg="http://www.w3.org/2000/svg"
   xmlns:rdf="http://www.w3.org/1999/02/22-rdf-syntax-ns#"
   xmlns:cc="http://creativecommons.org/ns#"
   xmlns:dc="http://purl.org/dc/elements/1.1/">
  <metadata
     id="metadata7">
    <rdf:RDF>
      <cc:Work
         rdf:about="">
        <dc:format>image/svg+xml</dc:format>
        <dc:type
           rdf:resource="http://purl.org/dc/dcmitype/StillImage" />
      </cc:Work>
    </rdf:RDF>
  </metadata>
  <defs
     id="defs5" />
  <sodipodi:namedview
     inkscape:window-height="1017"
     inkscape:window-width="1920"
     inkscape:pageshadow="2"
     inkscape:pageopacity="0.0"
     guidetolerance="10.0"
     gridtolerance="10.0"
     objecttolerance="10.0"
     borderopacity="1.0"
     bordercolor="#666666"
     pagecolor="#ffffff"
     id="base"
     inkscape:zoom="4"
     inkscape:cx="63.125"
     inkscape:cy="123.375"
     inkscape:window-x="-8"
     inkscape:window-y="-8"
     inkscape:current-layer="g1951"
     inkscape:pagecheckerboard="1"
     showgrid="false"
     inkscape:window-maximized="1" />
  <g
     id="g1951"
     transform="matrix(0.984376,0,0,0.984376,-5.55748,16.85992)">
    <path
       style="fill:#b10101;fill-opacity:1"
       d="m 71.680702,-17.116463 c -12.82166,0.602176 -25.713084,1.880153 -38.205252,4.894807 -1.493902,5.4185935 7.678532,10.2186018 12.717016,10.7519117 3.662738,4.4555334 10.770123,11.7530113 0.371593,12.4020623 -7.567394,2.827041 -15.295607,5.276369 -22.997469,7.634411 -0.104356,3.864746 6.459648,5.127582 9.395358,7.504308 3.120082,-0.849231 12.003084,-7.987553 10.210669,-1.861545 -3.376593,7.387194 -10.824096,12.202667 -14.15246,19.394438 7.123582,-0.412501 13.691099,-6.218867 18.86012,-11.154969 4.44962,-3.658904 5.647372,-10.016868 3.144066,-14.187515 7.288712,-4.131483 5.288078,10.546612 3.812429,13.990098 -7.741167,-0.974115 2.636514,9.304 -7.343572,7.569496 -7.860397,1.671911 7.817302,4.815923 -1.147326,5.906212 -10.9652,3.099971 -22.215877,5.224573 -33.008924,8.906288 0.752623,4.80882 7.257738,6.401341 11.091251,8.930787 5.173865,-3.181542 11.157176,-6.605362 17.27386,-8.4744 4.17418,-2.139453 4.455963,-0.752958 0.995182,1.898712 C 34.74123,65.187181 25.798211,72.324512 17.27445,79.88354 16.559962,83.756667 27.940022,77.821057 30.961932,75.938946 39.0989,70.704668 45.814605,63.676534 52.930698,57.196041 c -0.192,7.723291 0.534564,15.563228 -0.749998,23.187499 -4.502353,-1.404873 -11.033343,-3.056687 -5.448383,3.174453 2.283263,4.719901 8.340385,13.959963 10.245259,3.70581 2.909204,-8.519342 3.884505,-17.517715 4.208336,-26.445649 2.57084,-3.27455 6.995129,6.513386 9.30177,8.770221 4.293001,10.443757 16.042654,12.880815 26.176209,12.608034 10.129469,0.150095 -5.295095,-6.441398 -8.29829,-8.401758 -9.444258,-5.721049 -20.451228,-10.388664 -26.976895,-19.646272 -2.894391,-5.651141 3.992721,-4.814098 7.545797,-4.764838 8.626376,0.148274 17.821138,-1.109801 25.4745,3.832382 8.643307,3.33031 5.877587,-12.489201 -2.07219,-10.384076 -8.049915,-4.706944 -17.3618,-0.479205 -26.147965,-0.854381 -4.68848,1.676689 -10.706556,1.093417 -5.617317,-4.759374 1.851633,-7.565586 3.022458,-16.369412 12.594841,-16.709667 3.613041,-4.271043 19.32785,-2.078684 14.006522,-9.879552 C 82.896281,6.9563884 80.374397,4.1535241 75.183534,7.2206926 71.145841,7.3732117 56.724287,9.0030386 64.7432,2.1335381 71.2452,-2.2273052 79.071918,-6.9608555 85.848656,-8.9414323 87.359394,-17.102534 77.146979,-17.308731 71.680702,-17.116463 Z m -1.3125,5.875001 c -1.883754,3.1926459 -6.284611,6.7045639 -9.342162,9.9533444 -2.145461,3.3912579 -5.488441,-1.3885788 -8.146348,-2.1085917 -6.136035,-4.2952098 9.076228,-4.478891 11.936584,-6.5118427 1.841584,-0.478924 3.675559,-1.002982 5.551926,-1.33291 z m 0.6875,23.65625 c 8.317148,-0.146817 -13.886134,12.210712 -6.591491,1.621585 1.932616,-1.281577 4.333581,-1.520432 6.591491,-1.621585 z m 0.3125,82.937499 c -4.995679,4.024112 -3.1238,14.649933 -9.000002,19.906253 -6.236964,5.44086 -15.275487,5.45546 -22.836992,8.13255 -6.333031,0.0216 -9.309073,4.45657 -3.337376,8.63356 4.226506,3.30032 9.337994,-1.88798 13.753234,-3.09006 2.857248,-0.6829 -0.444184,6.69777 0.07806,8.72426 1.091653,7.78187 -10.507148,1.91877 -6.212633,9.6164 1.54032,8.67844 -0.873859,17.39124 -0.469136,26.03856 1.533716,2.27545 0.972737,9.04601 4.733497,8.19604 6.581747,-0.39007 13.19989,-2.10455 19.760099,-1.15756 -1.585228,4.59117 5.105194,9.3402 7.268123,5.56482 0.155305,-15.21501 0.667723,-30.44523 2.604221,-45.54263 -0.74785,-8.79283 -12.058526,-8.23197 -17.387924,-3.71752 -1.395804,0.47614 -7.675928,4.51581 -4.190721,1.13132 6.671715,-3.08576 -0.210639,-13.50849 8.755404,-12.70513 7.356628,-2.1769 15.069367,0.84591 22.17567,-0.45969 4.673123,-8.40532 -7.435141,-9.58964 -13.235025,-8.70867 -1.891202,-0.35023 -8.970362,1.0361 -4.466438,-1.45475 4.419384,-3.70831 11.193626,-6.89089 11.323096,-13.27924 -2.002085,-3.077371 -5.51339,-5.760098 -9.315154,-5.828513 z m -28.187504,5.000003 c -5.419066,0.78796 4.744289,8.352 4.285168,12.47948 4.466225,9.29666 13.055959,-0.34036 6.014613,-6.13254 -2.143772,-3.86907 -5.775731,-6.4797 -10.299781,-6.34694 z m -25.031248,9.09375 c -6.200358,1.84384 0.295961,15.04085 7.139287,12.80829 6.552639,-1.50023 -2.601326,-14.19944 -7.139287,-12.80829 z m 48.562502,31.28125 c 2.339184,5.21779 0.767635,12.02739 1.218748,17.90195 10e-7,4.8556 2e-6,9.7112 2e-6,14.5668 -4.872752,-1.01627 -13.385367,4.43368 -14.989073,-0.41695 -3.694577,-9.99021 18.003218,-1.7086 11.584944,-11.65569 -3.373523,-3.95819 -11.988626,5.14409 -11.533365,-0.1566 -1.791935,-8.97643 8.732738,-5.37047 11.860677,-10.30463 -2.720267,-9.38153 -13.033773,6.81139 -13.032378,-4.38272 -0.778682,-6.18551 11.447738,-3.1886 14.890445,-5.55216 z M 11.3057,145.50854 c -2.1836319,2.4102 6.415021,7.218 3.622689,12.33636 -2.213856,8.5705 4.51873,14.89083 6.741171,21.63607 -4.041041,2.29018 -22.0695503,-1.64941 -12.4381233,5.95445 6.2898103,7.13187 15.9389733,0.93894 23.8306563,2.68216 7.256743,1.95791 12.745022,7.84998 19.871483,10.36126 6.996539,1.87435 13.967289,8.94339 21.255459,6.96939 10.53522,-3.57363 21.256733,-6.53312 32.163425,-8.70184 -4.08782,-2.25512 -16.351266,-1.20717 -23.542219,-2.20686 -17.204399,-0.72787 -32.953548,-8.22389 -48.857362,-14.01432 -4.997397,-3.92538 -11.901236,-9.18012 -12.73364,-15.82602 4.842677,-7.36908 5.134192,-18.58579 -6.251932,-18.76748 -1.201598,-0.25304 -2.427236,-0.47651 -3.661607,-0.42317 z"
       id="path1957" />
  </g>
</svg>
