<?xml version="1.0" encoding="utf-8"?>
<!DOCTYPE svg PUBLIC "-//W3C//DTD SVG 1.1//EN" "http://www.w3.org/Graphics/SVG/1.1/DTD/svg11.dtd">
<svg version="1.1" xmlns="http://www.w3.org/2000/svg" xmlns:xlink="http://www.w3.org/1999/xlink" 
	 width="478.619" height="186.388" viewBox="0 0 478.619 186.388" overflow="visible" enable-background="new 0 0 478.619 186.388"
	 xml:space="preserve">
			<g>
				<path stroke="#BFBFBF" stroke-width="4" d="M192.044,47.68c0,0-1.475,4.952,0.21,7.375
					c1.686,2.423,24.86,1.791,24.86,1.791l-11.27-10.219L192.044,47.68z"/>
				<path stroke="#BFBFBF" stroke-width="4" d="M9.831,24.824c0,0,119.181,32.087,233.779,32.087
					c114.598,0,214.679-51.187,218.5-53.479c3.819-2.292,12.987,38.963,0.765,48.131c-12.225,9.168-80.983,48.896-216.208,48.896
					c-135.226,0-233.015-21.392-239.892-29.032C-0.101,63.787-0.101,33.228,9.831,24.824z"/>
				<path stroke="#BFBFBF" stroke-width="4" d="M252.014,127.962c0,0-22.156-6.112-28.268-21.392
					c-6.111-15.279,58.827-29.795,58.827-29.795l-6.112,31.324L252.014,127.962z"/>
				<path stroke="#BFBFBF" stroke-width="4" d="M195.479,104.278c0,0,30.56,21.392,35.143,19.1
					c4.584-2.292,58.827-36.671,58.827-36.671L243.61,53.091l-50.423,38.2L195.479,104.278z"/>
				<path stroke="#BFBFBF" stroke-width="4" d="M22.818,153.938c0,0,125.293-76.398,200.928-106.958
					c75.635-30.56,30.56,29.031,30.56,29.031s-78.69,38.199-110.778,57.299s-81.746,50.424-87.858,51.188
					C49.558,185.261,22.818,153.938,22.818,153.938z"/>
				<path stroke="#BFBFBF" stroke-width="4" d="M255.967,28.929c0,0-5.29-1.851-14.146,8.46
					c-8.857,10.312,15.07,8.197,15.07,8.197L255.967,28.929z"/>
				<path stroke="#BFBFBF" stroke-width="4" d="M232.15,30.172c0,0,94.734,49.659,127.586,60.355
					c32.851,10.696,113.832,46.603,116.889,55.771s-27.503,30.559-27.503,30.559s-23.685-21.391-54.243-34.379
					c-30.56-12.987-83.274-34.379-112.306-48.131c-29.031-13.751-89.387-47.367-89.387-47.367L232.15,30.172z"/>
				<path stroke="#BFBFBF" stroke-width="4" d="M255.834,29.408c0,0-2.292,92.442-4.584,97.026
					c-2.293,4.584,42.783-12.987,43.546-18.335c0.765-5.349,6.877-50.423,2.293-55.007S260.417,27.116,255.834,29.408z"/>
				<path fill="#FFFFFF" stroke="#FFED0D" stroke-width="2" d="M462.072,133.521l5.941,3.183
					c0,0-26.515,30.76-32.031,31.396c-2.336-1.618-2.759-1.91-6.153-4.032L462.072,133.521z"/>
				<path fill="#FFFFFF" stroke="#FFED0D" stroke-width="2" d="M447.154,125.117l5.941,3.183
					c0,0-25.464,29.92-30.98,30.557c-2.336-1.618-2.759-1.91-6.153-4.032L447.154,125.117z"/>
			</g>
</svg>
