<?xml version="1.0" encoding="utf-8"?>
<!-- Generator: Adobe Illustrator 16.0.3, SVG Export Plug-In . SVG Version: 6.00 Build 0)  -->
<svg xmlns="http://www.w3.org/2000/svg" width="960px" height="560px">
<path fill="#21932E" stroke="#333333" stroke-width="4" d="M385.196,187.165c0,0-2.958,9.933,0.421,14.792
	c3.381,4.86,49.863,3.593,49.863,3.593l-22.603-20.499L385.196,187.165z"/>
<path fill="#2D5DE2" stroke="#333333" stroke-width="4" d="M19.719,141.321c0,0,239.05,64.359,468.905,64.359
	c229.859,0,430.599-102.671,438.263-107.267c7.658-4.597,26.047,78.151,1.534,96.542C903.9,213.344,765.988,293.03,494.758,293.03
	c-271.233,0-467.375-42.907-481.169-58.231C-0.203,219.472-0.203,158.178,19.719,141.321z"/>
<path fill="#21932E" d="M937.088,144.948c1.611,20.828-2.529,42.915-13.745,51.327c-24.521,18.39-156.924,91.778-428.156,91.778
	S31.395,249.885,17.603,234.561c-6.896-7.661-10.342-26.816-9.575-46.162c0,0,267.014,57.82,491.66,55.814
	C720.362,242.243,935.991,145.448,937.088,144.948z"/>
<path fill="none" stroke="#1A1A1A" stroke-width="4" d="M19.719,141.321c0,0,239.05,64.359,468.905,64.359
	c229.859,0,430.599-102.671,438.263-107.267c7.658-4.597,26.047,78.151,1.534,96.542C903.9,213.344,765.988,293.03,494.758,293.03
	c-271.233,0-467.375-42.907-481.169-58.231C-0.203,219.472-0.203,158.178,19.719,141.321z"/>
<path fill="#21932E" stroke="#333333" stroke-width="4" d="M505.482,348.192c0,0-44.439-12.259-56.699-42.907
	c-12.257-30.646,117.993-59.762,117.993-59.762l-12.259,62.826L505.482,348.192z"/>
<linearGradient id="SVGID_1_" gradientUnits="userSpaceOnUse" x1="134.5039" y1="-248.8044" x2="160.2585" y2="-198.2581" gradientTransform="matrix(2.0058 0 0 2.0058 182.6133 715.52)">
	<stop  offset="0.7135" style="stop-color:#21932E"/>
	<stop  offset="0.7135" style="stop-color:#2D5DE2"/>
</linearGradient>
<path fill="url(#SVGID_1_)" stroke="#1A1A1A" stroke-width="4" d="M392.086,300.688c0,0,61.297,42.907,70.489,38.31
	c9.194-4.597,117.993-73.553,117.993-73.553l-91.944-67.427l-101.135,76.621L392.086,300.688z"/>
<linearGradient id="SVGID_2_" gradientUnits="userSpaceOnUse" x1="71.4189" y1="-182.0623" x2="47.1043" y2="-224.1767" gradientTransform="matrix(2.0058 0 0 2.0058 182.6133 715.52)">
	<stop  offset="0.5449" style="stop-color:#2D5DE2"/>
	<stop  offset="0.5449" style="stop-color:#21932E"/>
</linearGradient>
<path fill="url(#SVGID_2_)" stroke="#1A1A1A" stroke-width="4" d="M45.768,400.294c0,0,251.309-153.237,403.016-214.535
	c151.707-61.297,61.299,58.229,61.299,58.229s-157.834,76.618-222.198,114.929c-64.361,38.312-163.964,101.141-176.223,102.671
	C99.402,463.12,45.768,400.294,45.768,400.294z"/>
<path fill="#21932E" stroke="#333333" stroke-width="4" d="M513.411,149.555c0,0-10.61-3.713-28.374,16.969
	c-17.763,20.686,30.228,16.441,30.228,16.441L513.411,149.555z"/>
<linearGradient id="SVGID_3_" gradientUnits="userSpaceOnUse" x1="234.1831" y1="-192.0125" x2="252.8198" y2="-231.9789" gradientTransform="matrix(2.0058 0 0 2.0058 182.6133 715.52)">
	<stop  offset="0.5449" style="stop-color:#21932E"/>
	<stop  offset="0.5449" style="stop-color:#2D5DE2"/>
</linearGradient>
<path fill="url(#SVGID_3_)" stroke="#1A1A1A" stroke-width="4" d="M465.64,152.048c0,0,190.015,99.604,255.908,121.058
	C787.439,294.558,949.869,366.581,956,384.97c6.132,18.389-55.164,61.296-55.164,61.296s-47.507-42.907-108.799-68.958
	c-61.297-26.047-167.027-68.956-225.261-96.54c-58.229-27.581-179.29-95.007-179.29-95.007L465.64,152.048z"/>
<linearGradient id="SVGID_4_" gradientUnits="userSpaceOnUse" x1="162.2349" y1="-232.946" x2="206.8928" y2="-230.6057" gradientTransform="matrix(2.0058 0 0 2.0058 182.6133 715.52)">
	<stop  offset="0.5449" style="stop-color:#21932E"/>
	<stop  offset="0.5449" style="stop-color:#2D5DE2"/>
</linearGradient>
<path fill="url(#SVGID_4_)" stroke="#1A1A1A" stroke-width="4" d="M513.145,150.516c0,0-4.598,185.415-9.194,194.609
	c-4.6,9.194,85.813-26.047,87.343-36.776c1.535-10.729,13.794-101.137,4.6-110.331S522.337,145.918,513.145,150.516z"/>
</svg>